<?xml version="1.0" encoding="utf-8"?>
<!-- Generator: Adobe Illustrator 26.0.0, SVG Export Plug-In . SVG Version: 6.00 Build 0)  -->
<svg version="1.1" id="图层_1" xmlns="http://www.w3.org/2000/svg" xmlns:xlink="http://www.w3.org/1999/xlink" x="0px" y="0px"
	 viewBox="0 0 480 480" style="enable-background:new 0 0 480 480;" xml:space="preserve">
<style type="text/css">
	.st0{fill:none;}
	.st1{fill:#82AAFF;}
</style>
<rect x="433" y="371.5" class="st0" width="7.5" height="16.5"/>
<g>
	<path class="st1" d="M60.12,355.3h91.36l6.29-29.86c2.09-9.69,5.47-16.6,10.12-20.73c4.65-4.13,9.99-6.19,16.01-6.19
		c4.58,0,8.38,1.47,11.4,4.42c3.01,2.95,4.52,6.39,4.52,10.31c0,2.75-0.52,6.81-1.57,12.18l-15.13,70.14H0l8.64-40.28l156.2-157.57
		H90.77l-6.29,28.88c-1.96,9.69-5.27,16.6-9.92,20.73c-4.65,4.13-9.99,6.19-16.01,6.19c-4.59,0-8.42-1.47-11.49-4.42
		c-3.08-2.95-4.62-6.45-4.62-10.51c0-2.49,0.59-6.48,1.77-11.98l14.74-69.16h166.61l-8.45,39.29L60.12,355.3z"/>
	<path class="st1" d="M310.23,394.21l-40.67-136.75c-5.63-0.65-9.76-2.36-12.38-5.11c-2.62-2.75-3.93-6.35-3.93-10.81
		c0-7.99,3.8-14.67,11.4-20.04c4.06-2.88,10.81-4.32,20.24-4.32h36.74c9.04,0,15.16,1.41,18.37,4.22c3.21,2.82,4.81,6.71,4.81,11.69
		c0,6.55-2.62,12.25-7.86,17.09c-5.24,4.85-12.77,7.27-22.59,7.27l27.7,92.54l66.8-92.54c-7.86,0-13.36-1.44-16.5-4.32
		c-3.14-2.88-4.72-6.74-4.72-11.59c0-7.86,3.67-14.47,11-19.84c4.19-3.01,11.07-4.52,20.63-4.52H457c8.91,0,14.96,1.41,18.17,4.22
		c3.21,2.82,4.81,6.71,4.81,11.69c0,6.03-2.29,11.43-6.88,16.21c-4.59,4.78-10.87,7.5-18.86,8.15L323.2,439.39
		c10.48,0,17.09,1.18,19.84,3.54c3.8,3.14,5.7,7.27,5.7,12.38c0,8.25-3.93,15-11.79,20.24c-4.06,2.75-10.68,4.13-19.84,4.13h-88.02
		c-8.91,0-14.97-1.38-18.17-4.13c-3.21-2.75-4.81-6.68-4.81-11.79c0-7.99,3.8-14.67,11.4-20.04c4.19-2.88,10.94-4.32,20.24-4.32
		h40.08L310.23,394.21z"/>
</g>
</svg>
