<svg xmlns="http://www.w3.org/2000/svg" viewBox="0 0 291 198.93"><defs><style>.a{fill:#fff;}</style></defs><path class="a" d="M189,281h62v5h-3.23c-4.4.71-7.69,1.66-9.89,3.56a9,9,0,0,0-3.3,7.11q0,5.71,4.84,15.82l32.66,67.67,30-74.12a30.8,30.8,0,0,0,2.49-11.86,6.42,6.42,0,0,0-1-4,7.8,7.8,0,0,0-3.66-2.56c-1.66-.63-4.59-1-8.92-1V281h44v5.42a20.68,20.68,0,0,0-8.32,2.34,24.32,24.32,0,0,0-6.43,6.6q-1.31,2-5,11.27L260.83,440.52Q253,460,240.17,470t-24.6,10q-8.61,0-14.16-5c-3.7-3.33-5.55-7.13-5.55-11.43a12.87,12.87,0,0,1,4-9.89q4-3.74,11-3.73,4.82,0,13.14,3.22c3.89,1.46,6.33,2.2,7.3,2.2q4.38,0,9.56-4.54t10.44-17.58l9.49-23.29-48-101.22a81.06,81.06,0,0,0-7-11.28,32.88,32.88,0,0,0-6-6.89q-3.36-2.34-10.8-4.1Z" transform="translate(-189 -281)"/><path class="a" d="M335,281h63v5h-3.94c-3.81.71-6.71,1.64-8.71,3.49a9.68,9.68,0,0,0-3,7.47q0,5.13,3.08,12.16l31.2,74.12L448,306.34q3.36-8.2,3.37-12.46a4.86,4.86,0,0,0-1.17-3.36,8.12,8.12,0,0,0-4.11-3c-1.66-.53-5-.8-10.06-.8V281h44v5.41q-7.63.58-10.57,3.07-5.13,4.38-9.24,14.62L412.49,419h-6l-48-113q-3.23-7.89-6.16-11.33a24.43,24.43,0,0,0-7.49-5.78q-2.49-1.31-9.83-2.48Z" transform="translate(-189 -281)"/><text x="-189" y="-281"/></svg>